<svg width="48" height="48" viewBox="0 0 48 48" fill="none" xmlns="http://www.w3.org/2000/svg">
<path d="M32.6798 4.00023C39.4598 4.00023 43.9998 8.75823 43.9998 15.8382V32.1782C43.9998 39.2402 39.4598 44.0002 32.6798 44.0002H15.3398C8.55979 44.0002 3.99979 39.2402 3.99979 32.1782V15.8382C3.99979 8.75823 8.55979 4.00023 15.3398 4.00023H32.6798ZM23.2998 13.8382C22.4798 13.8382 21.7998 14.5202 21.7998 15.3382V25.4402C21.7998 25.9602 22.0798 26.4602 22.5398 26.7202L30.3798 31.4002C30.6198 31.5602 30.8998 31.6202 31.1598 31.6202C31.6598 31.6202 32.1598 31.3602 32.4398 30.8802C32.8798 30.1782 32.6398 29.2582 31.9198 28.8202L24.7998 24.5802V15.3382C24.7998 14.5202 24.1398 13.8382 23.2998 13.8382Z" fill="#FDBA74"/>
</svg>
