<svg width="40" height="40" viewBox="0 0 40 40" fill="none" xmlns="http://www.w3.org/2000/svg">
<path fill-rule="evenodd" clip-rule="evenodd" d="M-2.62268e-07 34C-1.17422e-07 37.3137 2.68629 40 6 40L34 40C37.3137 40 40 37.3137 40 34L40 19.5557C37.6181 21.4651 34.5946 22.6072 31.3043 22.6072C23.6204 22.6072 17.3913 16.3781 17.3913 8.69414C17.3913 5.40459 18.5329 2.38168 20.4416 6.73586e-06L6 7.36713e-06C2.68629 7.51197e-06 -1.63103e-06 2.6863 -1.48619e-06 6L-2.62268e-07 34Z" fill="#AF51C5"/>
<path fill-rule="evenodd" clip-rule="evenodd" d="M-2.62268e-07 34C-1.17422e-07 37.3137 2.68629 40 6 40L34 40C37.3137 40 40 37.3137 40 34L40 19.5557C37.6181 21.4651 34.5946 22.6072 31.3043 22.6072C23.6204 22.6072 17.3913 16.3781 17.3913 8.69414C17.3913 5.40459 18.5329 2.38168 20.4416 6.73586e-06L6 7.36713e-06C2.68629 7.51197e-06 -1.63103e-06 2.6863 -1.48619e-06 6L-2.62268e-07 34Z" fill="url(#paint0_linear_1_147)"/>
<circle cx="31.3043" cy="8.69656" r="6.95652" transform="rotate(-90 31.3043 8.69656)" fill="#AF51C5"/>
<defs>
<linearGradient id="paint0_linear_1_147" x1="-17.3913" y1="26.9566" x2="62.2933" y2="8.22383" gradientUnits="userSpaceOnUse">
<stop stop-color="#2F79CB"/>
<stop offset="1" stop-color="#AF51C5"/>
</linearGradient>
</defs>
</svg>
